<mxfile host="Electron" agent="Mozilla/5.0 (Windows NT 10.0; Win64; x64) AppleWebKit/537.36 (KHTML, like Gecko) draw.io/26.0.16 Chrome/132.0.6834.196 Electron/34.2.0 Safari/537.36" version="26.0.16">
  <diagram name="Page-1" id="Ktr1dekBpzmVkA-xvOig">
    <mxGraphModel dx="1050" dy="621" grid="0" gridSize="10" guides="1" tooltips="1" connect="1" arrows="1" fold="1" page="1" pageScale="1" pageWidth="1400" pageHeight="850" math="0" shadow="0">
      <root>
        <mxCell id="0" />
        <mxCell id="1" parent="0" />
        <mxCell id="LiIGhZHw_pr6en9Wty4Q-13" value="Quản trị viên" style="shape=umlActor;verticalLabelPosition=bottom;verticalAlign=top;html=1;" parent="1" vertex="1">
          <mxGeometry x="70" y="300" width="30" height="60" as="geometry" />
        </mxCell>
        <mxCell id="LiIGhZHw_pr6en9Wty4Q-19" value="Quản lý&amp;nbsp;&lt;div&gt;hệ thống chiếu phim&lt;/div&gt;" style="shape=umlFrame;whiteSpace=wrap;html=1;pointerEvents=0;recursiveResize=0;container=1;collapsible=0;width=185;height=36;" parent="1" vertex="1">
          <mxGeometry x="190" y="90" width="374" height="550" as="geometry" />
        </mxCell>
        <mxCell id="i7F4Qm3c1XLkGTTFzX4R-1" value="Xếp lịch chiếu" style="ellipse;whiteSpace=wrap;html=1;" parent="LiIGhZHw_pr6en9Wty4Q-19" vertex="1">
          <mxGeometry x="24" y="445" width="140" height="70" as="geometry" />
        </mxCell>
        <mxCell id="LiIGhZHw_pr6en9Wty4Q-2" value="Xóa phòng chiếu" style="ellipse;whiteSpace=wrap;html=1;movable=1;resizable=1;rotatable=1;deletable=1;editable=1;locked=0;connectable=1;" parent="LiIGhZHw_pr6en9Wty4Q-19" vertex="1">
          <mxGeometry x="187" y="37" width="120" height="50" as="geometry" />
        </mxCell>
        <mxCell id="LiIGhZHw_pr6en9Wty4Q-1" value="Thêm phòng chiếu" style="ellipse;whiteSpace=wrap;html=1;" parent="LiIGhZHw_pr6en9Wty4Q-19" vertex="1">
          <mxGeometry x="16" y="52" width="120" height="50" as="geometry" />
        </mxCell>
        <mxCell id="LiIGhZHw_pr6en9Wty4Q-4" value="Thay đổi&amp;nbsp;&lt;div&gt;sơ đồ phòng chiếu&lt;/div&gt;" style="ellipse;whiteSpace=wrap;html=1;" parent="LiIGhZHw_pr6en9Wty4Q-19" vertex="1">
          <mxGeometry x="58" y="174" width="130" height="60" as="geometry" />
        </mxCell>
        <mxCell id="LiIGhZHw_pr6en9Wty4Q-8" value="Lưu trữ phim" style="ellipse;whiteSpace=wrap;html=1;" parent="LiIGhZHw_pr6en9Wty4Q-19" vertex="1">
          <mxGeometry x="76" y="376" width="120" height="50" as="geometry" />
        </mxCell>
        <mxCell id="LiIGhZHw_pr6en9Wty4Q-7" value="Chỉnh sửa&amp;nbsp;&lt;div&gt;thông tin phim&lt;/div&gt;" style="ellipse;whiteSpace=wrap;html=1;" parent="LiIGhZHw_pr6en9Wty4Q-19" vertex="1">
          <mxGeometry x="177" y="337" width="120" height="50" as="geometry" />
        </mxCell>
        <mxCell id="LiIGhZHw_pr6en9Wty4Q-5" value="Thêm phim" style="ellipse;whiteSpace=wrap;html=1;" parent="LiIGhZHw_pr6en9Wty4Q-19" vertex="1">
          <mxGeometry x="236" y="239" width="110" height="40" as="geometry" />
        </mxCell>
        <mxCell id="LiIGhZHw_pr6en9Wty4Q-6" value="Xóa phim" style="ellipse;whiteSpace=wrap;html=1;" parent="LiIGhZHw_pr6en9Wty4Q-19" vertex="1">
          <mxGeometry x="116" y="276" width="120" height="40" as="geometry" />
        </mxCell>
        <mxCell id="LiIGhZHw_pr6en9Wty4Q-3" value="Điều chỉnh&lt;div&gt;âm thanh, ánh sáng&lt;/div&gt;" style="ellipse;whiteSpace=wrap;html=1;" parent="LiIGhZHw_pr6en9Wty4Q-19" vertex="1">
          <mxGeometry x="164" y="102" width="130" height="60" as="geometry" />
        </mxCell>
        <mxCell id="IgebM7A5z_q5sAiYnxnI-1" value="" style="endArrow=none;html=1;rounded=0;entryX=0;entryY=0.5;entryDx=0;entryDy=0;exitX=1;exitY=0.3333333333333333;exitDx=0;exitDy=0;exitPerimeter=0;" edge="1" parent="1" source="LiIGhZHw_pr6en9Wty4Q-13" target="LiIGhZHw_pr6en9Wty4Q-1">
          <mxGeometry width="50" height="50" relative="1" as="geometry">
            <mxPoint x="510" y="347" as="sourcePoint" />
            <mxPoint x="560" y="297" as="targetPoint" />
          </mxGeometry>
        </mxCell>
        <mxCell id="IgebM7A5z_q5sAiYnxnI-2" value="" style="endArrow=none;html=1;rounded=0;entryX=0;entryY=0.5;entryDx=0;entryDy=0;" edge="1" parent="1" source="LiIGhZHw_pr6en9Wty4Q-13" target="LiIGhZHw_pr6en9Wty4Q-2">
          <mxGeometry width="50" height="50" relative="1" as="geometry">
            <mxPoint x="110" y="322" as="sourcePoint" />
            <mxPoint x="236" y="173" as="targetPoint" />
          </mxGeometry>
        </mxCell>
        <mxCell id="IgebM7A5z_q5sAiYnxnI-3" value="" style="endArrow=none;html=1;rounded=0;entryX=0;entryY=0.5;entryDx=0;entryDy=0;exitX=1;exitY=0.3333333333333333;exitDx=0;exitDy=0;exitPerimeter=0;" edge="1" parent="1" source="LiIGhZHw_pr6en9Wty4Q-13" target="LiIGhZHw_pr6en9Wty4Q-4">
          <mxGeometry width="50" height="50" relative="1" as="geometry">
            <mxPoint x="110" y="331" as="sourcePoint" />
            <mxPoint x="384" y="173" as="targetPoint" />
          </mxGeometry>
        </mxCell>
        <mxCell id="IgebM7A5z_q5sAiYnxnI-4" value="" style="endArrow=none;html=1;rounded=0;entryX=0;entryY=0.5;entryDx=0;entryDy=0;exitX=1;exitY=0.3333333333333333;exitDx=0;exitDy=0;exitPerimeter=0;" edge="1" parent="1" source="LiIGhZHw_pr6en9Wty4Q-13" target="LiIGhZHw_pr6en9Wty4Q-3">
          <mxGeometry width="50" height="50" relative="1" as="geometry">
            <mxPoint x="100" y="316" as="sourcePoint" />
            <mxPoint x="254" y="308" as="targetPoint" />
          </mxGeometry>
        </mxCell>
        <mxCell id="IgebM7A5z_q5sAiYnxnI-5" value="" style="endArrow=none;html=1;rounded=0;entryX=0;entryY=0.5;entryDx=0;entryDy=0;exitX=1;exitY=0.3333333333333333;exitDx=0;exitDy=0;exitPerimeter=0;" edge="1" parent="1" source="LiIGhZHw_pr6en9Wty4Q-13" target="LiIGhZHw_pr6en9Wty4Q-5">
          <mxGeometry width="50" height="50" relative="1" as="geometry">
            <mxPoint x="110" y="337" as="sourcePoint" />
            <mxPoint x="268" y="304" as="targetPoint" />
          </mxGeometry>
        </mxCell>
        <mxCell id="IgebM7A5z_q5sAiYnxnI-6" value="" style="endArrow=none;html=1;rounded=0;entryX=0;entryY=0.5;entryDx=0;entryDy=0;exitX=1;exitY=0.3333333333333333;exitDx=0;exitDy=0;exitPerimeter=0;" edge="1" parent="1" source="LiIGhZHw_pr6en9Wty4Q-13" target="LiIGhZHw_pr6en9Wty4Q-6">
          <mxGeometry width="50" height="50" relative="1" as="geometry">
            <mxPoint x="120" y="347" as="sourcePoint" />
            <mxPoint x="278" y="314" as="targetPoint" />
          </mxGeometry>
        </mxCell>
        <mxCell id="IgebM7A5z_q5sAiYnxnI-7" value="" style="endArrow=none;html=1;rounded=0;entryX=0;entryY=0.5;entryDx=0;entryDy=0;exitX=1;exitY=0.3333333333333333;exitDx=0;exitDy=0;exitPerimeter=0;" edge="1" parent="1" source="LiIGhZHw_pr6en9Wty4Q-13" target="LiIGhZHw_pr6en9Wty4Q-8">
          <mxGeometry width="50" height="50" relative="1" as="geometry">
            <mxPoint x="103" y="338" as="sourcePoint" />
            <mxPoint x="288" y="324" as="targetPoint" />
          </mxGeometry>
        </mxCell>
        <mxCell id="IgebM7A5z_q5sAiYnxnI-8" value="" style="endArrow=none;html=1;rounded=0;entryX=0;entryY=0.5;entryDx=0;entryDy=0;exitX=1;exitY=0.3333333333333333;exitDx=0;exitDy=0;exitPerimeter=0;" edge="1" parent="1" source="LiIGhZHw_pr6en9Wty4Q-13" target="LiIGhZHw_pr6en9Wty4Q-7">
          <mxGeometry width="50" height="50" relative="1" as="geometry">
            <mxPoint x="100" y="336" as="sourcePoint" />
            <mxPoint x="298" y="334" as="targetPoint" />
          </mxGeometry>
        </mxCell>
        <mxCell id="IgebM7A5z_q5sAiYnxnI-9" value="" style="endArrow=none;html=1;rounded=0;entryX=0;entryY=0.5;entryDx=0;entryDy=0;exitX=1;exitY=0.3333333333333333;exitDx=0;exitDy=0;exitPerimeter=0;" edge="1" parent="1" source="LiIGhZHw_pr6en9Wty4Q-13" target="i7F4Qm3c1XLkGTTFzX4R-1">
          <mxGeometry width="50" height="50" relative="1" as="geometry">
            <mxPoint x="88" y="386" as="sourcePoint" />
            <mxPoint x="233" y="500" as="targetPoint" />
          </mxGeometry>
        </mxCell>
      </root>
    </mxGraphModel>
  </diagram>
</mxfile>
